<?xml version="1.0" encoding="UTF-8"?>
<svg id="a" xmlns="http://www.w3.org/2000/svg" width="789.69" height="839.75" viewBox="0 0 789.69 839.75">
  <path d="M477.4,350.24h0c.75.89,1.49,1.79,2.21,2.7s1.43,1.84,2.12,2.77c.69.94,1.37,1.88,2.03,2.84s1.31,1.93,1.93,2.91c12.55-12.43,23.6-26.29,32.93-41.29s16.86-31.04,22.46-47.79c5.6-16.75,9.22-34.1,10.78-51.69,1.56-17.59,1.07-35.31-1.49-52.79-2.55-17.48-7.14-34.6-13.67-51.01-6.53-16.41-14.96-32-25.12-46.45-10.15-14.45-21.96-27.66-35.19-39.37s-27.78-21.82-43.36-30.15l50.11,7.99c13.94,10.55,26.65,22.63,37.9,36.02,11.25,13.39,20.95,27.99,28.94,43.55,7.99,15.55,14.2,31.95,18.53,48.89,4.33,16.94,6.74,34.31,7.19,51.79.45,17.48-1.06,34.95-4.5,52.09-3.44,17.14-8.8,33.84-15.97,49.79s-16.11,31.03-26.64,44.99c-10.54,13.95-22.61,26.68-35.98,37.93.49,1.05.97,2.12,1.43,3.18.46,1.07.9,2.15,1.33,3.23.42,1.08.83,2.17,1.22,3.27.39,1.1.76,2.2,1.12,3.31,15.34-8.76,29.6-19.28,42.49-31.36,12.89-12.07,24.32-25.62,34.07-40.35,9.74-14.73,17.73-30.55,23.79-47.14,6.07-16.59,10.17-33.83,12.23-51.37,2.06-17.54,2.06-35.26,0-52.81-2.06-17.54-6.17-34.78-12.24-51.37s-14.06-32.41-23.8-47.14c-9.75-14.73-21.18-28.27-34.08-40.34l46.34,20.69c10.74,13.8,19.89,28.76,27.28,44.6,7.4,15.84,12.99,32.46,16.68,49.55,3.69,17.09,5.45,34.54,5.24,52.02s-2.37,34.89-6.46,51.89c-4.08,17-10.07,33.48-17.83,49.15-7.76,15.66-17.26,30.41-28.32,43.96-11.05,13.55-23.59,25.81-37.38,36.56s-28.74,19.92-44.58,27.33c2.29,12.78,2.26,25.86-.1,38.63-2.35,12.77-6.99,25-13.68,36.12-6.7,11.12-15.34,20.94-25.52,28.99-10.18,8.05-21.73,14.21-34.09,18.16,8.76,15.34,19.28,29.6,31.36,42.49,12.07,12.89,25.62,24.32,40.35,34.07,14.73,9.74,30.55,17.73,47.14,23.79,16.59,6.07,33.83,10.17,51.37,12.23s35.26,2.06,52.8,0,34.78-6.17,51.37-12.24,32.41-14.06,47.14-23.8c14.73-9.75,28.27-21.18,40.34-34.08l-20.69,46.34c-13.8,10.74-28.76,19.89-44.6,27.28-15.84,7.4-32.46,12.99-49.55,16.68-17.09,3.69-34.54,5.45-52.02,5.24-17.48-.2-34.89-2.37-51.89-6.46-17-4.08-33.48-10.07-49.15-17.83-15.66-7.76-30.41-17.26-43.96-28.32-13.55-11.05-25.81-23.59-36.56-37.38s-19.92-28.74-27.33-44.58c-1.14.21-2.29.39-3.45.56-1.15.17-2.3.32-3.46.45s-2.32.24-3.48.34c-1.16.09-2.32.17-3.48.22,4.49,17.08,10.97,33.58,19.29,49.15,8.33,15.58,18.45,30.13,30.16,43.35s24.92,25.03,39.38,35.18c14.45,10.15,30.04,18.58,46.45,25.11,16.41,6.53,33.53,11.11,51.01,13.66,17.48,2.55,35.19,3.04,52.79,1.48,17.59-1.57,34.94-5.19,51.69-10.79s32.79-13.14,47.79-22.48l-31.98,39.41c-16.11,6.8-32.93,11.76-50.14,14.81-17.22,3.05-34.72,4.15-52.18,3.29-17.46-.86-34.77-3.68-51.61-8.4-16.83-4.72-33.08-11.32-48.45-19.67-15.36-8.34-29.74-18.39-42.86-29.94s-24.9-24.54-35.13-38.73c-10.22-14.18-18.82-29.47-25.64-45.57-6.82-16.1-11.8-32.91-14.86-50.13-1.16-.1-2.32-.22-3.48-.35-1.15-.13-2.31-.29-3.46-.46-1.15-.17-2.3-.36-3.44-.57s-2.28-.44-3.42-.69c-.08,17.66,1.9,35.27,5.91,52.47s10.02,33.87,17.91,49.68c7.89,15.8,17.59,30.63,28.93,44.18,11.33,13.55,24.21,25.72,38.38,36.27,14.16,10.55,29.51,19.41,45.73,26.4,16.22,6.98,33.21,12.05,50.6,15.09,17.4,3.04,35.1,4.03,52.73,2.95s35.07-4.21,51.97-9.34l-41.08,29.78c-17.32,2.4-34.85,2.84-52.27,1.33-17.42-1.51-34.61-4.98-51.25-10.33-16.65-5.35-32.64-12.55-47.68-21.47-15.04-8.92-29.03-19.5-41.71-31.53-12.68-12.04-23.96-25.46-33.65-40.02-9.68-14.56-17.7-30.15-23.91-46.5-6.2-16.35-10.56-33.34-12.97-50.65-2.41-17.32-2.88-34.85-1.38-52.27-1.09-.4-2.18-.81-3.26-1.24-1.08-.43-2.16-.88-3.22-1.34-1.07-.46-2.13-.95-3.18-1.44-1.05-.5-2.1-1.02-3.13-1.55-4.65,17.04-7.29,34.56-7.87,52.22-.58,17.65.91,35.31,4.44,52.62s9.07,34.14,16.51,50.16c7.44,16.02,16.73,31.11,27.68,44.97,10.95,13.86,23.48,26.39,37.34,37.34s28.96,20.23,44.98,27.67c16.02,7.44,32.86,12.97,50.16,16.5,17.31,3.53,34.97,5.01,52.62,4.43l-47.39,18.14c-17.35-2.17-34.4-6.28-50.83-12.25-16.43-5.97-32.14-13.77-46.84-23.24-14.69-9.48-28.27-20.57-40.49-33.08s-22.99-26.34-32.12-41.25-16.56-30.8-22.15-47.36c-5.59-16.57-9.3-33.71-11.06-51.1-1.76-17.39-1.57-34.93.58-52.28,2.15-17.35,6.24-34.41,12.19-50.84-.96-.66-1.9-1.35-2.83-2.04s-1.86-1.4-2.76-2.13c-.91-.72-1.81-1.46-2.7-2.22-.89-.75-1.76-1.52-2.62-2.3-8.9,15.25-15.99,31.5-21.12,48.4s-8.26,34.35-9.33,51.98c-1.07,17.63-.08,35.33,2.96,52.72,3.04,17.4,8.11,34.38,15.1,50.6,6.99,16.22,15.85,31.57,26.41,45.73s22.73,27.04,36.28,38.37,28.38,21.04,44.18,28.92c15.81,7.88,32.48,13.89,49.68,17.9l-50.47,5.25c-16.2-6.58-31.6-14.96-45.93-24.98-14.33-10.02-27.48-21.62-39.22-34.57-11.74-12.96-21.99-27.19-30.55-42.43s-15.39-31.4-20.35-48.16c-4.96-16.76-8.02-34.03-9.13-51.48-1.11-17.45-.26-34.97,2.54-52.22,2.8-17.26,7.52-34.15,14.09-50.35,6.57-16.2,14.93-31.62,24.94-45.96-.75-.89-1.49-1.79-2.21-2.7s-1.43-1.84-2.12-2.77c-.69-.94-1.37-1.88-2.03-2.84s-1.31-1.93-1.93-2.91c-12.55,12.43-23.6,26.29-32.93,41.28-9.33,15-16.86,31.04-22.46,47.79-5.6,16.75-9.22,34.1-10.78,51.69s-1.07,35.31,1.49,52.79c2.55,17.48,7.14,34.6,13.67,51,6.53,16.41,14.96,32,25.11,46.45,10.16,14.45,21.97,27.66,35.19,39.37,13.23,11.7,27.78,21.82,43.36,30.15l-50.11-7.99c-13.94-10.55-26.65-22.63-37.9-36.02s-20.95-27.99-28.94-43.55c-7.99-15.55-14.2-31.95-18.53-48.89s-6.74-34.31-7.19-51.79,1.06-34.95,4.5-52.09,8.8-33.84,15.97-49.79c7.17-15.95,16.11-31.04,26.64-44.99,10.54-13.95,22.61-26.68,35.98-37.94-.49-1.05-.97-2.11-1.43-3.18s-.9-2.15-1.33-3.23c-.42-1.08-.83-2.17-1.22-3.27-.39-1.1-.76-2.2-1.12-3.31-15.34,8.76-29.6,19.28-42.49,31.36-12.89,12.07-24.32,25.62-34.07,40.35-9.74,14.73-17.73,30.55-23.8,47.14s-10.17,33.83-12.23,51.37-2.06,35.26,0,52.8,6.17,34.78,12.24,51.37c6.07,16.59,14.06,32.41,23.8,47.14,9.75,14.73,21.18,28.27,34.08,40.34l-46.34-20.69c-10.73-13.8-19.89-28.76-27.28-44.6-7.4-15.84-12.99-32.46-16.68-49.55-3.69-17.09-5.45-34.54-5.24-52.02.2-17.48,2.37-34.89,6.46-51.89,4.09-17,10.07-33.48,17.83-49.15,7.76-15.67,17.26-30.41,28.31-43.96,11.05-13.55,23.59-25.81,37.38-36.56,13.79-10.75,28.74-19.92,44.57-27.33-2.29-12.78-2.25-25.86.1-38.63,2.35-12.76,6.99-25,13.68-36.12,6.7-11.12,15.34-20.94,25.52-28.99s21.73-14.21,34.09-18.16c-8.76-15.34-19.28-29.6-31.36-42.49-12.07-12.89-25.62-24.32-40.35-34.07-14.73-9.74-30.55-17.73-47.14-23.79-16.59-6.07-33.83-10.17-51.37-12.23s-35.26-2.06-52.81,0c-17.54,2.06-34.78,6.17-51.37,12.24s-32.41,14.06-47.14,23.8S12.14,261.67.07,274.56l20.69-46.34c13.8-10.73,28.76-19.88,44.6-27.28,15.84-7.4,32.46-12.99,49.55-16.68,17.09-3.69,34.54-5.45,52.02-5.24,17.48.2,34.89,2.37,51.89,6.45,17,4.09,33.49,10.07,49.15,17.83,15.66,7.76,30.41,17.26,43.96,28.31s25.81,23.59,36.56,37.38c10.75,13.79,19.92,28.74,27.33,44.57,1.15-.2,2.3-.39,3.45-.56,1.15-.17,2.31-.32,3.46-.45,1.16-.13,2.32-.24,3.48-.34,1.16-.09,2.32-.17,3.48-.22-4.49-17.08-10.97-33.58-19.29-49.16-8.33-15.58-18.45-30.12-30.16-43.35-11.71-13.22-24.92-25.03-39.38-35.19-14.45-10.15-30.04-18.58-46.46-25.11-16.41-6.53-33.53-11.11-51.01-13.66s-35.19-3.04-52.79-1.47c-17.59,1.57-34.94,5.19-51.69,10.79-16.75,5.6-32.79,13.14-47.79,22.47l31.97-39.4c16.11-6.8,32.93-11.76,50.14-14.81,17.22-3.04,34.72-4.15,52.18-3.29s34.77,3.68,51.61,8.4,33.09,11.32,48.45,19.66c15.36,8.35,29.74,18.39,42.86,29.94,13.12,11.55,24.9,24.54,35.13,38.73,10.22,14.18,18.82,29.47,25.64,45.57s11.8,32.92,14.86,50.13c1.16.1,2.32.22,3.48.35,1.15.14,2.31.29,3.46.46,1.15.18,2.3.36,3.44.58,1.14.21,2.28.44,3.42.69.08-17.66-1.9-35.28-5.91-52.48-4.01-17.2-10.02-33.87-17.91-49.68-7.89-15.8-17.59-30.63-28.93-44.18-11.33-13.55-24.21-25.72-38.38-36.28-14.16-10.55-29.51-19.41-45.73-26.4s-33.21-12.05-50.61-15.09c-17.4-3.04-35.09-4.03-52.72-2.95s-35.07,4.21-51.97,9.34l41.08-29.79c17.32-2.4,34.85-2.84,52.27-1.33,17.42,1.51,34.61,4.98,51.25,10.33,16.65,5.35,32.64,12.55,47.68,21.47,15.04,8.92,29.03,19.49,41.7,31.53,12.68,12.04,23.97,25.46,33.65,40.02,9.69,14.56,17.7,30.15,23.91,46.5,6.2,16.34,10.56,33.34,12.97,50.65,2.41,17.32,2.88,34.85,1.38,52.27,1.09.39,2.18.81,3.26,1.24,1.08.43,2.16.88,3.22,1.34,1.07.47,2.13.95,3.18,1.45s2.1,1.02,3.13,1.55c4.65-17.04,7.29-34.56,7.87-52.22.58-17.65-.91-35.31-4.44-52.62s-9.07-34.14-16.51-50.16-16.73-31.11-27.68-44.97c-10.95-13.86-23.48-26.39-37.34-37.34s-28.96-20.23-44.98-27.67c-16.02-7.44-32.86-12.97-50.16-16.5s-34.97-5.01-52.62-4.43l47.39-18.14c17.35,2.17,34.4,6.28,50.83,12.25,16.43,5.97,32.14,13.77,46.84,23.24,14.69,9.48,28.27,20.57,40.49,33.08s22.99,26.34,32.12,41.25,16.56,30.8,22.15,47.36c5.59,16.57,9.3,33.71,11.06,51.1,1.76,17.4,1.57,34.93-.58,52.28s-6.24,34.4-12.19,50.84c.96.66,1.9,1.34,2.83,2.04s1.86,1.41,2.76,2.13c.91.73,1.81,1.47,2.7,2.22.89.76,1.76,1.52,2.62,2.31,8.9-15.25,15.99-31.5,21.12-48.4s8.26-34.35,9.33-51.97c1.07-17.63.08-35.33-2.96-52.72-3.04-17.4-8.11-34.38-15.1-50.6-6.99-16.22-15.85-31.57-26.41-45.73-10.56-14.16-22.73-27.04-36.28-38.37s-28.38-21.04-44.18-28.92c-15.8-7.88-32.48-13.89-49.68-17.9L373.79.07c16.2,6.58,31.6,14.97,45.93,24.99,14.33,10.02,27.48,21.62,39.22,34.57,11.74,12.96,21.99,27.19,30.55,42.43,8.57,15.24,15.39,31.4,20.35,48.16,4.96,16.76,8.02,34.03,9.13,51.48s.26,34.97-2.54,52.22c-2.8,17.26-7.53,34.15-14.09,50.35-6.57,16.2-14.93,31.62-24.94,45.96" fill="#fff" fill-rule="evenodd"/>
  <path d="M477.4,350.24h0c.75.89,1.49,1.79,2.21,2.7s1.43,1.84,2.12,2.77c.69.94,1.37,1.88,2.03,2.84s1.31,1.93,1.93,2.91c12.55-12.43,23.6-26.29,32.93-41.29s16.86-31.04,22.46-47.79c5.6-16.75,9.22-34.1,10.78-51.69,1.56-17.59,1.07-35.31-1.49-52.79-2.55-17.48-7.14-34.6-13.67-51.01-6.53-16.41-14.96-32-25.12-46.45-10.15-14.45-21.96-27.66-35.19-39.37s-27.78-21.82-43.36-30.15l50.11,7.99c13.94,10.55,26.65,22.63,37.9,36.02,11.25,13.39,20.95,27.99,28.94,43.55,7.99,15.55,14.2,31.95,18.53,48.89,4.33,16.94,6.74,34.31,7.19,51.79.45,17.48-1.06,34.95-4.5,52.09-3.44,17.14-8.8,33.84-15.97,49.79s-16.11,31.03-26.64,44.99c-10.54,13.95-22.61,26.68-35.98,37.93.49,1.05.97,2.12,1.43,3.18.46,1.07.9,2.15,1.33,3.23.42,1.08.83,2.17,1.22,3.27.39,1.1.76,2.2,1.12,3.31,15.34-8.76,29.6-19.28,42.49-31.36,12.89-12.07,24.32-25.62,34.07-40.35,9.74-14.73,17.73-30.55,23.79-47.14,6.07-16.59,10.17-33.83,12.23-51.37,2.06-17.54,2.06-35.26,0-52.81-2.06-17.54-6.17-34.78-12.24-51.37s-14.06-32.41-23.8-47.14c-9.75-14.73-21.18-28.27-34.08-40.34l46.34,20.69c10.74,13.8,19.89,28.76,27.28,44.6,7.4,15.84,12.99,32.46,16.68,49.55,3.69,17.09,5.45,34.54,5.24,52.02s-2.37,34.89-6.46,51.89c-4.08,17-10.07,33.48-17.83,49.15-7.76,15.66-17.26,30.41-28.32,43.96-11.05,13.55-23.59,25.81-37.38,36.56s-28.74,19.92-44.58,27.33c2.29,12.78,2.26,25.86-.1,38.63-2.35,12.77-6.99,25-13.68,36.12-6.7,11.12-15.34,20.94-25.52,28.99-10.18,8.05-21.73,14.21-34.09,18.16,8.76,15.34,19.28,29.6,31.36,42.49,12.07,12.89,25.62,24.32,40.35,34.07,14.73,9.74,30.55,17.73,47.14,23.79,16.59,6.07,33.83,10.17,51.37,12.23s35.26,2.06,52.8,0,34.78-6.17,51.37-12.24,32.41-14.06,47.14-23.8c14.73-9.75,28.27-21.18,40.34-34.08l-20.69,46.34c-13.8,10.74-28.76,19.89-44.6,27.28-15.84,7.4-32.46,12.99-49.55,16.68-17.09,3.69-34.54,5.45-52.02,5.24-17.48-.2-34.89-2.37-51.89-6.46-17-4.08-33.48-10.07-49.15-17.83-15.66-7.76-30.41-17.26-43.96-28.32-13.55-11.05-25.81-23.59-36.56-37.38s-19.92-28.74-27.33-44.58c-1.14.21-2.29.39-3.45.56-1.15.17-2.3.32-3.46.45s-2.32.24-3.48.34c-1.16.09-2.32.17-3.48.22,4.49,17.08,10.97,33.58,19.29,49.15,8.33,15.58,18.45,30.13,30.16,43.35s24.92,25.03,39.38,35.18c14.45,10.15,30.04,18.58,46.45,25.11,16.41,6.53,33.53,11.11,51.01,13.66,17.48,2.55,35.19,3.04,52.79,1.48,17.59-1.57,34.94-5.19,51.69-10.79s32.79-13.14,47.79-22.48l-31.98,39.41c-16.11,6.8-32.93,11.76-50.14,14.81-17.22,3.05-34.72,4.15-52.18,3.29-17.46-.86-34.77-3.68-51.61-8.4-16.83-4.72-33.08-11.32-48.45-19.67-15.36-8.34-29.74-18.39-42.86-29.94s-24.9-24.54-35.13-38.73c-10.22-14.18-18.82-29.47-25.64-45.57-6.82-16.1-11.8-32.91-14.86-50.13-1.16-.1-2.32-.22-3.48-.35-1.15-.13-2.31-.29-3.46-.46-1.15-.17-2.3-.36-3.44-.57s-2.28-.44-3.42-.69c-.08,17.66,1.9,35.27,5.91,52.47s10.02,33.87,17.91,49.68c7.89,15.8,17.59,30.63,28.93,44.18,11.33,13.55,24.21,25.72,38.38,36.27,14.16,10.55,29.51,19.41,45.73,26.4,16.22,6.98,33.21,12.05,50.6,15.09,17.4,3.04,35.1,4.03,52.73,2.95s35.07-4.21,51.97-9.34l-41.08,29.78c-17.32,2.4-34.85,2.84-52.27,1.33-17.42-1.51-34.61-4.98-51.25-10.33-16.65-5.35-32.64-12.55-47.68-21.47-15.04-8.92-29.03-19.5-41.71-31.53-12.68-12.04-23.96-25.46-33.65-40.02-9.68-14.56-17.7-30.15-23.91-46.5-6.2-16.35-10.56-33.34-12.97-50.65-2.41-17.32-2.88-34.85-1.38-52.27-1.09-.4-2.18-.81-3.26-1.24-1.08-.43-2.16-.88-3.22-1.34-1.07-.46-2.13-.95-3.18-1.44-1.05-.5-2.1-1.02-3.13-1.55-4.65,17.04-7.29,34.56-7.87,52.22-.58,17.65.91,35.31,4.44,52.62s9.07,34.14,16.51,50.16c7.44,16.02,16.73,31.11,27.68,44.97,10.95,13.86,23.48,26.39,37.34,37.34s28.96,20.23,44.98,27.67c16.02,7.44,32.86,12.97,50.16,16.5,17.31,3.53,34.97,5.01,52.62,4.43l-47.39,18.14c-17.35-2.17-34.4-6.28-50.83-12.25-16.43-5.97-32.14-13.77-46.84-23.24-14.69-9.48-28.27-20.57-40.49-33.08s-22.99-26.34-32.12-41.25-16.56-30.8-22.15-47.36c-5.59-16.57-9.3-33.71-11.06-51.1-1.76-17.39-1.57-34.93.58-52.28,2.15-17.35,6.24-34.41,12.19-50.84-.96-.66-1.9-1.35-2.83-2.04s-1.86-1.4-2.76-2.13c-.91-.72-1.81-1.46-2.7-2.22-.89-.75-1.76-1.52-2.62-2.3-8.9,15.25-15.99,31.5-21.12,48.4s-8.26,34.35-9.33,51.98c-1.07,17.63-.08,35.33,2.96,52.72,3.04,17.4,8.11,34.38,15.1,50.6,6.99,16.22,15.85,31.57,26.41,45.73s22.73,27.04,36.28,38.37,28.38,21.04,44.18,28.92c15.81,7.88,32.48,13.89,49.68,17.9l-50.47,5.25c-16.2-6.58-31.6-14.96-45.93-24.98-14.33-10.02-27.48-21.62-39.22-34.57-11.74-12.96-21.99-27.19-30.55-42.43s-15.39-31.4-20.35-48.16c-4.96-16.76-8.02-34.03-9.13-51.48-1.11-17.45-.26-34.97,2.54-52.22,2.8-17.26,7.52-34.15,14.09-50.35,6.57-16.2,14.93-31.62,24.94-45.96-.75-.89-1.49-1.79-2.21-2.7s-1.43-1.84-2.12-2.77c-.69-.94-1.37-1.88-2.03-2.84s-1.31-1.93-1.93-2.91c-12.55,12.43-23.6,26.29-32.93,41.28-9.33,15-16.86,31.04-22.46,47.79-5.6,16.75-9.22,34.1-10.78,51.69s-1.07,35.31,1.49,52.79c2.55,17.48,7.14,34.6,13.67,51,6.53,16.41,14.96,32,25.11,46.45,10.16,14.45,21.97,27.66,35.19,39.37,13.23,11.7,27.78,21.82,43.36,30.15l-50.11-7.99c-13.94-10.55-26.65-22.63-37.9-36.02s-20.95-27.99-28.94-43.55c-7.99-15.55-14.2-31.95-18.53-48.89s-6.74-34.31-7.19-51.79,1.06-34.95,4.5-52.09,8.8-33.84,15.97-49.79c7.17-15.95,16.11-31.04,26.64-44.99,10.54-13.95,22.61-26.68,35.98-37.94-.49-1.05-.97-2.11-1.43-3.18s-.9-2.15-1.33-3.23c-.42-1.08-.83-2.17-1.22-3.27-.39-1.1-.76-2.2-1.12-3.31-15.34,8.76-29.6,19.28-42.49,31.36-12.89,12.07-24.32,25.62-34.07,40.35-9.74,14.73-17.73,30.55-23.8,47.14s-10.17,33.83-12.23,51.37-2.06,35.26,0,52.8,6.17,34.78,12.24,51.37c6.07,16.59,14.06,32.41,23.8,47.14,9.75,14.73,21.18,28.27,34.08,40.34l-46.34-20.69c-10.73-13.8-19.89-28.76-27.28-44.6-7.4-15.84-12.99-32.46-16.68-49.55-3.69-17.09-5.45-34.54-5.24-52.02.2-17.48,2.37-34.89,6.46-51.89,4.09-17,10.07-33.48,17.83-49.15,7.76-15.67,17.26-30.41,28.31-43.96,11.05-13.55,23.59-25.81,37.38-36.56,13.79-10.75,28.74-19.92,44.57-27.33-2.29-12.78-2.25-25.86.1-38.63,2.35-12.76,6.99-25,13.68-36.12,6.7-11.12,15.34-20.94,25.52-28.99s21.73-14.21,34.09-18.16c-8.76-15.34-19.28-29.6-31.36-42.49-12.07-12.89-25.62-24.32-40.35-34.07-14.73-9.74-30.55-17.73-47.14-23.79-16.59-6.07-33.83-10.17-51.37-12.23s-35.26-2.06-52.81,0c-17.54,2.06-34.78,6.17-51.37,12.24s-32.41,14.06-47.14,23.8S12.14,261.67.07,274.56l20.69-46.34c13.8-10.73,28.76-19.88,44.6-27.28,15.84-7.4,32.46-12.99,49.55-16.68,17.09-3.69,34.54-5.45,52.02-5.24,17.48.2,34.89,2.37,51.89,6.45,17,4.09,33.49,10.07,49.15,17.83,15.66,7.76,30.41,17.26,43.96,28.31s25.81,23.59,36.56,37.38c10.75,13.79,19.92,28.74,27.33,44.57,1.15-.2,2.3-.39,3.45-.56,1.15-.17,2.31-.32,3.46-.45,1.16-.13,2.32-.24,3.48-.34,1.16-.09,2.32-.17,3.48-.22-4.49-17.08-10.97-33.58-19.29-49.16-8.33-15.58-18.45-30.12-30.16-43.35-11.71-13.22-24.92-25.03-39.38-35.19-14.45-10.15-30.04-18.58-46.46-25.11-16.41-6.53-33.53-11.11-51.01-13.66s-35.19-3.04-52.79-1.47c-17.59,1.57-34.94,5.19-51.69,10.79-16.75,5.6-32.79,13.14-47.79,22.47l31.97-39.4c16.11-6.8,32.93-11.76,50.14-14.81,17.22-3.04,34.72-4.15,52.18-3.29s34.77,3.68,51.61,8.4,33.09,11.32,48.45,19.66c15.36,8.35,29.74,18.39,42.86,29.94,13.12,11.55,24.9,24.54,35.13,38.73,10.22,14.18,18.82,29.47,25.64,45.57s11.8,32.92,14.86,50.13c1.16.1,2.32.22,3.48.35,1.15.14,2.31.29,3.46.46,1.15.18,2.3.36,3.44.58,1.14.21,2.28.44,3.42.69.08-17.66-1.9-35.28-5.91-52.48-4.01-17.2-10.02-33.87-17.91-49.68-7.89-15.8-17.59-30.63-28.93-44.18-11.33-13.55-24.21-25.72-38.38-36.28-14.16-10.55-29.51-19.41-45.73-26.4s-33.21-12.05-50.61-15.09c-17.4-3.04-35.09-4.03-52.72-2.95s-35.07,4.21-51.97,9.34l41.08-29.79c17.32-2.4,34.85-2.84,52.27-1.33,17.42,1.51,34.61,4.98,51.25,10.33,16.65,5.35,32.64,12.55,47.68,21.47,15.04,8.92,29.03,19.49,41.7,31.53,12.68,12.04,23.97,25.46,33.65,40.02,9.69,14.56,17.7,30.15,23.91,46.5,6.2,16.34,10.56,33.34,12.97,50.65,2.41,17.32,2.88,34.85,1.38,52.27,1.09.39,2.18.81,3.26,1.24,1.08.43,2.16.88,3.22,1.34,1.07.47,2.13.95,3.18,1.45s2.1,1.02,3.13,1.55c4.65-17.04,7.29-34.56,7.87-52.22.58-17.65-.91-35.31-4.44-52.62s-9.07-34.14-16.51-50.16-16.73-31.11-27.68-44.97c-10.95-13.86-23.48-26.39-37.34-37.34s-28.96-20.23-44.98-27.67c-16.02-7.44-32.86-12.97-50.16-16.5s-34.97-5.01-52.62-4.43l47.39-18.14c17.35,2.17,34.4,6.28,50.83,12.25,16.43,5.97,32.14,13.77,46.84,23.24,14.69,9.48,28.27,20.57,40.49,33.08s22.99,26.34,32.12,41.25,16.56,30.8,22.15,47.36c5.59,16.57,9.3,33.71,11.06,51.1,1.76,17.4,1.57,34.93-.58,52.28s-6.24,34.4-12.19,50.84c.96.66,1.9,1.34,2.83,2.04s1.86,1.41,2.76,2.13c.91.73,1.81,1.47,2.7,2.22.89.76,1.76,1.52,2.62,2.31,8.9-15.25,15.99-31.5,21.12-48.4s8.26-34.35,9.33-51.97c1.07-17.63.08-35.33-2.96-52.72-3.04-17.4-8.11-34.38-15.1-50.6-6.99-16.22-15.85-31.57-26.41-45.73-10.56-14.16-22.73-27.04-36.28-38.37s-28.38-21.04-44.18-28.92c-15.8-7.88-32.48-13.89-49.68-17.9L373.79.07c16.2,6.58,31.6,14.97,45.93,24.99,14.33,10.02,27.48,21.62,39.22,34.57,11.74,12.96,21.99,27.19,30.55,42.43,8.57,15.24,15.39,31.4,20.35,48.16,4.96,16.76,8.02,34.03,9.13,51.48s.26,34.97-2.54,52.22c-2.8,17.26-7.53,34.15-14.09,50.35-6.57,16.2-14.93,31.62-24.94,45.96" fill="none" stroke="#000" stroke-linecap="round" stroke-linejoin="round" stroke-width=".14"/>
</svg>