<?xml version="1.0" encoding="UTF-8"?>
<svg id="a" data-name="Layer 1" xmlns="http://www.w3.org/2000/svg" width="838.24" height="601.76" viewBox="0 0 838.24 601.76">
  <path d="M312.31,381.64h0c.14-.94.3-1.88.46-2.82.17-.94.34-1.87.54-2.8.19-.93.39-1.86.61-2.79.22-.93.44-1.85.68-2.77-14.99-7.98-29.07-17.57-41.98-28.6-12.91-11.03-24.59-23.44-34.81-37-10.22-13.56-18.94-28.2-25.99-43.65-7.05-15.45-12.4-31.62-15.94-48.23-3.55-16.61-5.27-33.56-5.14-50.54.13-16.98,2.11-33.9,5.9-50.46,3.8-16.55,9.38-32.64,16.67-47.99,7.28-15.34,16.22-29.84,26.64-43.25L286.29.07c-12.56,11.76-23.74,24.91-33.32,39.2-9.58,14.29-17.5,29.63-23.61,45.71-6.11,16.08-10.36,32.81-12.68,49.86-2.32,17.05-2.69,34.3-1.09,51.43s5.13,34.02,10.55,50.35c5.42,16.33,12.68,31.99,21.64,46.67,8.96,14.68,19.57,28.3,31.62,40.58,12.05,12.28,25.46,23.15,39.96,32.4,4.07-9.81,9.56-18.96,16.3-27.16,6.74-8.2,14.65-15.37,23.48-21.27,8.83-5.89,18.48-10.46,28.64-13.54,10.16-3.08,20.72-4.64,31.34-4.64s21.18,1.56,31.34,4.64c10.16,3.08,19.81,7.64,28.64,13.54,8.83,5.9,16.74,13.06,23.48,21.27,6.74,8.2,12.23,17.36,16.3,27.16,14.51-9.24,27.92-20.11,39.96-32.4,12.05-12.28,22.65-25.9,31.62-40.58,8.96-14.69,16.22-30.34,21.64-46.67,5.42-16.33,8.96-33.22,10.55-50.35,1.59-17.13,1.22-34.39-1.09-51.43-2.32-17.05-6.57-33.77-12.68-49.86-6.11-16.08-14.03-31.42-23.61-45.71-9.58-14.29-20.76-27.44-33.32-39.2l46.34,20.69c10.43,13.41,19.36,27.91,26.64,43.25,7.28,15.34,12.87,31.43,16.67,47.99,3.79,16.55,5.77,33.47,5.9,50.46.13,16.98-1.59,33.93-5.14,50.54-3.54,16.61-8.89,32.78-15.94,48.23-7.05,15.45-15.77,30.09-25.99,43.65-10.22,13.56-21.9,25.97-34.81,37-12.91,11.03-26.99,20.62-41.98,28.6.24.92.47,1.84.68,2.77.22.93.42,1.86.61,2.79.19.93.37,1.86.54,2.8s.32,1.87.46,2.82c16.32-5.46,31.95-12.76,46.62-21.77,14.66-9,28.25-19.65,40.5-31.73,12.25-12.08,23.08-25.52,32.29-40.05,9.21-14.53,16.73-30.07,22.42-46.31,5.69-16.24,9.5-33.07,11.38-50.17,1.87-17.1,1.8-34.36-.24-51.45-2.03-17.08-6.01-33.88-11.85-50.06-5.84-16.18-13.5-31.65-22.84-46.1l39.96,31.28c6.87,15.53,12.04,31.76,15.39,48.41,3.36,16.65,4.89,33.61,4.56,50.59-.32,16.98-2.49,33.88-6.48,50.39-3.98,16.51-9.76,32.53-17.22,47.79-7.46,15.26-16.56,29.66-27.14,42.94-10.58,13.29-22.58,25.38-35.78,36.06-13.2,10.69-27.53,19.9-42.72,27.48-15.2,7.58-31.18,13.48-47.65,17.59,0,.95,0,1.9,0,2.85-.01.95-.04,1.9-.08,2.85-.04.95-.09,1.9-.16,2.85-.06.95-.14,1.9-.24,2.84,17.15-1.35,34.09-4.65,50.5-9.84,16.4-5.19,32.16-12.23,46.97-20.99,14.81-8.76,28.57-19.18,41.02-31.05,12.45-11.88,23.51-25.13,32.95-39.51,9.45-14.38,17.22-29.79,23.18-45.93,5.96-16.14,10.06-32.91,12.21-49.97,2.16-17.07,2.37-34.33.62-51.44-1.75-17.11-5.45-33.97-11.01-50.25l31.2,40.02c2.91,16.73,3.99,33.73,3.22,50.7-.77,16.97-3.39,33.8-7.81,50.19-4.42,16.4-10.62,32.27-18.48,47.32s-17.34,29.21-28.27,42.21c-10.93,13-23.24,24.77-36.72,35.1-13.48,10.33-28.04,19.16-43.44,26.34-15.39,7.18-31.52,12.65-48.11,16.33-16.58,3.68-33.51,5.54-50.5,5.54-.22.92-.45,1.85-.7,2.76-.24.92-.5,1.83-.77,2.75-.27.91-.55,1.82-.84,2.72-.29.9-.6,1.8-.92,2.7,16.97,2.84,34.21,3.73,51.38,2.67,17.17-1.07,34.17-4.09,50.65-9,16.49-4.92,32.36-11.69,47.31-20.2,14.95-8.51,28.88-18.7,41.53-30.36,12.65-11.67,23.92-24.74,33.6-38.96,9.68-14.22,17.72-29.5,23.94-45.54,6.22-16.04,10.6-32.73,13.04-49.76,2.44-17.03,2.94-34.28,1.47-51.43l20.59,46.38c-1.22,16.94-4.29,33.7-9.14,49.97-4.85,16.28-11.47,31.97-19.72,46.81-8.26,14.84-18.11,28.74-29.37,41.45-11.27,12.71-23.89,24.15-37.64,34.12-13.75,9.97-28.54,18.41-44.12,25.18-15.58,6.76-31.85,11.81-48.52,15.05-16.67,3.24-33.65,4.65-50.63,4.2-16.98-.44-33.86-2.74-50.34-6.84-.44.84-.89,1.68-1.35,2.52-.46.83-.93,1.66-1.41,2.48-.48.82-.97,1.63-1.48,2.44-.5.81-1.02,1.61-1.54,2.4,15.78,6.86,32.29,11.9,49.2,15.02,16.92,3.12,34.14,4.3,51.33,3.52,17.19-.78,34.23-3.52,50.79-8.16,16.57-4.64,32.55-11.16,47.64-19.42,15.09-8.26,29.19-18.21,42.03-29.67,12.84-11.45,24.33-24.33,34.25-38.39,9.92-14.06,18.2-29.2,24.69-45.13,6.49-15.93,11.14-32.55,13.87-49.54l8.76,49.98c-5.28,16.14-12.31,31.66-20.96,46.28-8.65,14.62-18.86,28.25-30.46,40.65-11.6,12.41-24.52,23.51-38.53,33.11-14.01,9.6-29.02,17.65-44.77,24-15.75,6.35-32.15,10.96-48.9,13.75-16.75,2.79-33.76,3.75-50.72,2.86s-33.77-3.63-50.14-8.17c-16.37-4.54-32.19-10.85-47.19-18.81-.63.72-1.27,1.42-1.92,2.11-.65.7-1.3,1.38-1.97,2.06-.67.68-1.34,1.35-2.02,2.01-.68.66-1.38,1.31-2.08,1.96,13.65,10.47,28.45,19.35,44.11,26.47,15.66,7.12,32.08,12.43,48.95,15.83,16.86,3.4,34.06,4.87,51.26,4.37,17.2-.49,34.28-2.95,50.92-7.31,16.64-4.37,32.73-10.61,47.96-18.62,15.23-8.01,29.49-17.73,42.52-28.97,13.02-11.24,24.73-23.93,34.88-37.82,10.15-13.89,18.69-28.89,25.44-44.71l-3.59,50.62c-9.03,14.38-19.6,27.74-31.53,39.83-11.93,12.09-25.14,22.85-39.39,32.08-14.26,9.23-29.48,16.87-45.39,22.8-15.92,5.93-32.43,10.1-49.25,12.45-16.82,2.35-33.84,2.86-50.78,1.52-16.93-1.34-33.66-4.53-49.9-9.49-16.24-4.97-31.89-11.7-46.67-20.06-14.78-8.36-28.61-18.31-41.24-29.67-.78.54-1.57,1.07-2.37,1.59-.8.52-1.6,1.03-2.41,1.52-.81.5-1.63.98-2.45,1.46-.82.48-1.65.94-2.49,1.39,10.71,13.46,22.92,25.66,36.4,36.36,13.47,10.7,28.12,19.82,43.66,27.2,15.54,7.38,31.87,12.96,48.68,16.64,16.81,3.68,33.98,5.43,51.18,5.22,17.2-.21,34.33-2.38,51.04-6.46s32.9-10.07,48.26-17.82c15.36-7.75,29.78-17.23,42.99-28.26,13.21-11.02,25.12-23.51,35.5-37.23l-15.73,48.24c-12.24,11.77-25.73,22.17-40.23,31.02-14.5,8.85-29.91,16.09-45.98,21.59-16.07,5.51-32.69,9.24-49.56,11.15-16.88,1.9-33.91,1.96-50.8.17-16.89-1.79-33.53-5.42-49.63-10.81-16.1-5.4-31.57-12.53-46.13-21.28-14.56-8.75-28.11-19.06-40.44-30.75-12.32-11.69-23.33-24.69-32.83-38.76-6.06,2.28-12.31,4-18.68,5.16-6.37,1.16-12.83,1.74-19.3,1.74s-12.93-.58-19.3-1.74c-6.37-1.15-12.62-2.88-18.68-5.16-9.5,14.08-20.51,27.07-32.83,38.76-12.32,11.69-25.88,22-40.44,30.75-14.56,8.75-30.02,15.89-46.13,21.28-16.1,5.4-32.75,9.02-49.63,10.81-16.89,1.79-33.92,1.73-50.8-.17-16.88-1.9-33.5-5.64-49.56-11.15-16.07-5.5-31.48-12.74-45.98-21.59-14.5-8.85-27.99-19.25-40.23-31.02l-15.73-48.24c10.38,13.72,22.29,26.21,35.5,37.23,13.21,11.02,27.63,20.5,42.99,28.26,15.36,7.75,31.55,13.73,48.26,17.82,16.71,4.09,33.83,6.25,51.04,6.46,17.2.21,34.37-1.54,51.18-5.22,16.8-3.68,33.14-9.27,48.68-16.64,15.54-7.38,30.19-16.51,43.66-27.2,13.48-10.7,25.68-22.9,36.4-36.36-.84-.45-1.66-.92-2.49-1.39-.82-.48-1.64-.96-2.45-1.46-.81-.5-1.61-1.01-2.41-1.52-.8-.52-1.59-1.05-2.37-1.59-12.63,11.36-26.45,21.31-41.24,29.67-14.78,8.36-30.43,15.09-46.67,20.06-16.24,4.97-32.97,8.15-49.9,9.49-16.93,1.34-33.96.83-50.78-1.52-16.82-2.35-33.33-6.53-49.25-12.45-15.91-5.93-31.14-13.58-45.39-22.8-14.26-9.23-27.47-19.98-39.39-32.08-11.93-12.09-22.5-25.45-31.53-39.83L.07,386.5c6.75,15.82,15.29,30.83,25.44,44.71,10.15,13.89,21.85,26.58,34.88,37.82,13.03,11.24,27.29,20.96,42.52,28.97,15.23,8.01,31.32,14.26,47.96,18.62,16.64,4.36,33.73,6.82,50.92,7.31,17.2.5,34.4-.97,51.26-4.37,16.86-3.4,33.29-8.71,48.95-15.83,15.66-7.12,30.46-16,44.11-26.47-.7-.64-1.39-1.3-2.08-1.96-.68-.66-1.36-1.33-2.03-2.01-.66-.68-1.32-1.37-1.97-2.06-.65-.7-1.29-1.4-1.92-2.11-15,7.97-30.82,14.28-47.19,18.81-16.37,4.54-33.18,7.27-50.14,8.17-16.96.89-33.97-.07-50.72-2.86-16.75-2.79-33.15-7.41-48.9-13.75-15.75-6.35-30.77-14.4-44.77-24-14.01-9.6-26.93-20.7-38.53-33.11-11.6-12.4-21.82-26.04-30.46-40.65-8.65-14.62-15.67-30.13-20.96-46.28l8.76-49.98c2.73,16.99,7.38,33.61,13.87,49.54,6.49,15.93,14.77,31.08,24.69,45.13,9.92,14.06,21.41,26.94,34.25,38.39,12.84,11.46,26.94,21.41,42.03,29.67,15.09,8.26,31.08,14.77,47.64,19.42,16.57,4.64,33.61,7.38,50.79,8.16,17.19.78,34.41-.4,51.33-3.52,16.92-3.12,33.43-8.16,49.2-15.02-.52-.79-1.04-1.59-1.54-2.4-.5-.81-1-1.62-1.48-2.44-.48-.82-.95-1.65-1.41-2.48-.46-.83-.91-1.67-1.35-2.52-16.48,4.1-33.36,6.39-50.34,6.84-16.98.44-33.95-.97-50.63-4.2-16.67-3.24-32.94-8.28-48.52-15.05-15.58-6.76-30.37-15.21-44.12-25.18-13.75-9.97-26.37-21.41-37.64-34.12-11.27-12.71-21.12-26.6-29.37-41.45-8.26-14.84-14.87-30.54-19.72-46.81-4.85-16.27-7.92-33.03-9.14-49.97l20.59-46.38c-1.47,17.14-.97,34.39,1.47,51.43,2.44,17.03,6.82,33.72,13.04,49.76,6.22,16.04,14.26,31.32,23.94,45.54,9.68,14.22,20.96,27.29,33.6,38.96,12.64,11.67,26.58,21.85,41.53,30.36,14.95,8.51,30.83,15.29,47.31,20.2,16.49,4.92,33.48,7.94,50.65,9,17.17,1.07,34.41.17,51.38-2.67-.32-.9-.62-1.8-.92-2.7-.29-.9-.57-1.81-.84-2.72s-.53-1.83-.77-2.75c-.24-.92-.48-1.84-.7-2.76-16.98,0-33.92-1.87-50.5-5.54-16.58-3.68-32.71-9.15-48.11-16.33-15.39-7.17-29.96-16.01-43.44-26.34-13.48-10.33-25.79-22.1-36.72-35.1-10.93-13-20.41-27.15-28.27-42.21-7.86-15.06-14.05-30.92-18.47-47.32-4.42-16.4-7.04-33.23-7.81-50.19-.77-16.97.31-33.97,3.22-50.7l31.2-40.02c-5.57,16.28-9.26,33.14-11.01,50.25-1.75,17.12-1.54,34.37.62,51.44,2.16,17.07,6.26,33.83,12.21,49.97,5.96,16.14,13.73,31.55,23.18,45.93,9.45,14.38,20.5,27.63,32.95,39.51,12.45,11.88,26.21,22.29,41.02,31.05,14.81,8.76,30.57,15.8,46.97,20.99s33.34,8.49,50.5,9.84c-.09-.95-.17-1.89-.24-2.84-.06-.95-.12-1.9-.16-2.85-.04-.95-.07-1.9-.08-2.85-.01-.95-.02-1.9,0-2.85-16.48-4.12-32.46-10.02-47.65-17.59-15.2-7.58-29.52-16.79-42.72-27.48-13.2-10.68-25.2-22.78-35.78-36.06s-19.68-27.69-27.14-42.94c-7.46-15.26-13.23-31.28-17.21-47.79-3.98-16.51-6.16-33.4-6.48-50.39s1.21-33.95,4.56-50.59c3.36-16.65,8.52-32.88,15.39-48.41l39.96-31.28c-9.34,14.45-17.01,29.91-22.84,46.1-5.84,16.18-9.81,32.98-11.85,50.06-2.03,17.08-2.11,34.34-.24,51.45,1.88,17.1,5.69,33.93,11.38,50.17,5.69,16.24,13.21,31.77,22.41,46.31,9.21,14.53,20.04,27.97,32.29,40.05,12.25,12.08,25.84,22.73,40.5,31.73,14.66,9,30.3,16.31,46.62,21.77" fill="#fff" fill-rule="evenodd"/>
  <path d="M312.31,381.64h0c.14-.94.3-1.88.46-2.82.17-.94.34-1.87.54-2.8.19-.93.39-1.86.61-2.79.22-.93.44-1.85.68-2.77-14.99-7.98-29.07-17.57-41.98-28.6-12.91-11.03-24.59-23.44-34.81-37-10.22-13.56-18.94-28.2-25.99-43.65-7.05-15.45-12.4-31.62-15.94-48.23-3.55-16.61-5.27-33.56-5.14-50.54.13-16.98,2.11-33.9,5.9-50.46,3.8-16.55,9.38-32.64,16.67-47.99,7.28-15.34,16.22-29.84,26.64-43.25L286.29.07c-12.56,11.76-23.74,24.91-33.32,39.2-9.58,14.29-17.5,29.63-23.61,45.71-6.11,16.08-10.36,32.81-12.68,49.86-2.32,17.05-2.69,34.3-1.09,51.43s5.13,34.02,10.55,50.35c5.42,16.33,12.68,31.99,21.64,46.67,8.96,14.68,19.57,28.3,31.62,40.58,12.05,12.28,25.46,23.15,39.96,32.4,4.07-9.81,9.56-18.96,16.3-27.16,6.74-8.2,14.65-15.37,23.48-21.27,8.83-5.89,18.48-10.46,28.64-13.54,10.16-3.08,20.72-4.64,31.34-4.64s21.18,1.56,31.34,4.64c10.16,3.08,19.81,7.64,28.64,13.54,8.83,5.9,16.74,13.06,23.48,21.27,6.74,8.2,12.23,17.36,16.3,27.16,14.51-9.24,27.92-20.11,39.96-32.4,12.05-12.28,22.65-25.9,31.62-40.58,8.96-14.69,16.22-30.34,21.64-46.67,5.42-16.33,8.96-33.22,10.55-50.35,1.59-17.13,1.22-34.39-1.09-51.43-2.32-17.05-6.57-33.77-12.68-49.86-6.11-16.08-14.03-31.42-23.61-45.71-9.58-14.29-20.76-27.44-33.32-39.2l46.34,20.69c10.43,13.41,19.36,27.91,26.64,43.25,7.28,15.34,12.87,31.43,16.67,47.99,3.79,16.55,5.77,33.47,5.9,50.46.13,16.98-1.59,33.93-5.14,50.54-3.54,16.61-8.89,32.78-15.94,48.23-7.05,15.45-15.77,30.09-25.99,43.65-10.22,13.56-21.9,25.97-34.81,37-12.91,11.03-26.99,20.62-41.98,28.6.24.92.47,1.84.68,2.77.22.93.42,1.86.61,2.79.19.93.37,1.86.54,2.8s.32,1.87.46,2.82c16.32-5.46,31.95-12.76,46.62-21.77,14.66-9,28.25-19.65,40.5-31.73,12.25-12.08,23.08-25.52,32.29-40.05,9.21-14.53,16.73-30.07,22.42-46.31,5.69-16.24,9.5-33.07,11.38-50.17,1.87-17.1,1.8-34.36-.24-51.45-2.03-17.08-6.01-33.88-11.85-50.06-5.84-16.18-13.5-31.65-22.84-46.1l39.96,31.28c6.87,15.53,12.04,31.76,15.39,48.41,3.36,16.65,4.89,33.61,4.56,50.59-.32,16.98-2.49,33.88-6.48,50.39-3.98,16.51-9.76,32.53-17.22,47.79-7.46,15.26-16.56,29.66-27.14,42.94-10.58,13.29-22.58,25.38-35.78,36.06-13.2,10.69-27.53,19.9-42.72,27.48-15.2,7.58-31.18,13.48-47.65,17.59,0,.95,0,1.9,0,2.85-.01.95-.04,1.9-.08,2.85-.04.95-.09,1.9-.16,2.85-.06.95-.14,1.9-.24,2.84,17.15-1.35,34.09-4.65,50.5-9.84,16.4-5.19,32.16-12.23,46.97-20.99,14.81-8.76,28.57-19.18,41.02-31.05,12.45-11.88,23.51-25.13,32.95-39.51,9.45-14.38,17.22-29.79,23.18-45.93,5.96-16.14,10.06-32.91,12.21-49.97,2.16-17.07,2.37-34.33.62-51.44-1.75-17.11-5.45-33.97-11.01-50.25l31.2,40.02c2.91,16.73,3.99,33.73,3.22,50.7-.77,16.97-3.39,33.8-7.81,50.19-4.42,16.4-10.62,32.27-18.48,47.32s-17.34,29.21-28.27,42.21c-10.93,13-23.24,24.77-36.72,35.1-13.48,10.33-28.04,19.16-43.44,26.34-15.39,7.18-31.52,12.65-48.11,16.33-16.58,3.68-33.51,5.54-50.5,5.54-.22.92-.45,1.85-.7,2.76-.24.92-.5,1.83-.77,2.75-.27.91-.55,1.82-.84,2.72-.29.9-.6,1.8-.92,2.7,16.97,2.84,34.21,3.73,51.38,2.67,17.17-1.07,34.17-4.09,50.65-9,16.49-4.92,32.36-11.69,47.31-20.2,14.95-8.51,28.88-18.7,41.53-30.36,12.65-11.67,23.92-24.74,33.6-38.96,9.68-14.22,17.72-29.5,23.94-45.54,6.22-16.04,10.6-32.73,13.04-49.76,2.44-17.03,2.94-34.28,1.47-51.43l20.59,46.38c-1.22,16.94-4.29,33.7-9.14,49.97-4.85,16.28-11.47,31.97-19.72,46.81-8.26,14.84-18.11,28.74-29.37,41.45-11.27,12.71-23.89,24.15-37.64,34.12-13.75,9.97-28.54,18.41-44.12,25.18-15.58,6.76-31.85,11.81-48.52,15.05-16.67,3.24-33.65,4.65-50.63,4.2-16.98-.44-33.86-2.74-50.34-6.84-.44.84-.89,1.68-1.35,2.52-.46.83-.93,1.66-1.41,2.48-.48.82-.97,1.63-1.48,2.44-.5.81-1.02,1.61-1.54,2.4,15.78,6.86,32.29,11.9,49.2,15.02,16.92,3.12,34.14,4.3,51.33,3.52,17.19-.78,34.23-3.52,50.79-8.16,16.57-4.64,32.55-11.16,47.64-19.42,15.09-8.26,29.19-18.21,42.03-29.67,12.84-11.45,24.33-24.33,34.25-38.39,9.92-14.06,18.2-29.2,24.69-45.13,6.49-15.93,11.14-32.55,13.87-49.54l8.76,49.98c-5.28,16.14-12.31,31.66-20.96,46.28-8.65,14.62-18.86,28.25-30.46,40.65-11.6,12.41-24.52,23.51-38.53,33.11-14.01,9.6-29.02,17.65-44.77,24-15.75,6.35-32.15,10.96-48.9,13.75-16.75,2.79-33.76,3.75-50.72,2.86s-33.77-3.63-50.14-8.17c-16.37-4.54-32.19-10.85-47.19-18.81-.63.72-1.27,1.42-1.92,2.11-.65.7-1.3,1.38-1.97,2.06-.67.68-1.34,1.35-2.02,2.01-.68.66-1.38,1.31-2.08,1.96,13.65,10.47,28.45,19.35,44.11,26.47,15.66,7.12,32.08,12.43,48.95,15.83,16.86,3.4,34.06,4.87,51.26,4.37,17.2-.49,34.28-2.95,50.92-7.31,16.64-4.37,32.73-10.61,47.96-18.62,15.23-8.01,29.49-17.73,42.52-28.97,13.02-11.24,24.73-23.93,34.88-37.82,10.15-13.89,18.69-28.89,25.44-44.71l-3.59,50.62c-9.03,14.38-19.6,27.74-31.53,39.83-11.93,12.09-25.14,22.85-39.39,32.08-14.26,9.23-29.48,16.87-45.39,22.8-15.92,5.93-32.43,10.1-49.25,12.45-16.82,2.35-33.84,2.86-50.78,1.52-16.93-1.34-33.66-4.53-49.9-9.49-16.24-4.97-31.89-11.7-46.67-20.06-14.78-8.36-28.61-18.31-41.24-29.67-.78.54-1.57,1.07-2.37,1.59-.8.52-1.6,1.03-2.41,1.52-.81.5-1.63.98-2.45,1.46-.82.48-1.65.94-2.49,1.39,10.71,13.46,22.92,25.66,36.4,36.36,13.47,10.7,28.12,19.82,43.66,27.2,15.54,7.38,31.87,12.96,48.68,16.64,16.81,3.68,33.98,5.43,51.18,5.22,17.2-.21,34.33-2.38,51.04-6.46s32.9-10.07,48.26-17.82c15.36-7.75,29.78-17.23,42.99-28.26,13.21-11.02,25.12-23.51,35.5-37.23l-15.73,48.24c-12.24,11.77-25.73,22.17-40.23,31.02-14.5,8.85-29.91,16.09-45.98,21.59-16.07,5.51-32.69,9.24-49.56,11.15-16.88,1.9-33.91,1.96-50.8.17-16.89-1.79-33.53-5.42-49.63-10.81-16.1-5.4-31.57-12.53-46.13-21.28-14.56-8.75-28.11-19.06-40.44-30.75-12.32-11.69-23.33-24.69-32.83-38.76-6.06,2.28-12.31,4-18.68,5.16-6.37,1.16-12.83,1.74-19.3,1.74s-12.93-.58-19.3-1.74c-6.37-1.15-12.62-2.88-18.68-5.16-9.5,14.08-20.51,27.07-32.83,38.76-12.32,11.69-25.88,22-40.44,30.75-14.56,8.75-30.02,15.89-46.13,21.28-16.1,5.4-32.75,9.02-49.63,10.81-16.89,1.79-33.92,1.73-50.8-.17-16.88-1.9-33.5-5.64-49.56-11.15-16.07-5.5-31.48-12.74-45.98-21.59-14.5-8.85-27.99-19.25-40.23-31.02l-15.73-48.24c10.38,13.72,22.29,26.21,35.5,37.23,13.21,11.02,27.63,20.5,42.99,28.26,15.36,7.75,31.55,13.73,48.26,17.82,16.71,4.09,33.83,6.25,51.04,6.46,17.2.21,34.37-1.54,51.18-5.22,16.8-3.68,33.14-9.27,48.68-16.64,15.54-7.38,30.19-16.51,43.66-27.2,13.48-10.7,25.68-22.9,36.4-36.36-.84-.45-1.66-.92-2.49-1.39-.82-.48-1.64-.96-2.45-1.46-.81-.5-1.61-1.01-2.41-1.52-.8-.52-1.59-1.05-2.37-1.59-12.63,11.36-26.45,21.31-41.24,29.67-14.78,8.36-30.43,15.09-46.67,20.06-16.24,4.97-32.97,8.15-49.9,9.49-16.93,1.34-33.96.83-50.78-1.52-16.82-2.35-33.33-6.53-49.25-12.45-15.91-5.93-31.14-13.58-45.39-22.8-14.26-9.23-27.47-19.98-39.39-32.08-11.93-12.09-22.5-25.45-31.53-39.83L.07,386.5c6.75,15.82,15.29,30.83,25.44,44.71,10.15,13.89,21.85,26.58,34.88,37.82,13.03,11.24,27.29,20.96,42.52,28.97,15.23,8.01,31.32,14.26,47.96,18.62,16.64,4.36,33.73,6.82,50.92,7.31,17.2.5,34.4-.97,51.26-4.37,16.86-3.4,33.29-8.71,48.95-15.83,15.66-7.12,30.46-16,44.11-26.47-.7-.64-1.39-1.3-2.08-1.96-.68-.66-1.36-1.33-2.03-2.01-.66-.68-1.32-1.37-1.97-2.06-.65-.7-1.29-1.4-1.92-2.11-15,7.97-30.82,14.28-47.19,18.81-16.37,4.54-33.18,7.27-50.14,8.17-16.96.89-33.97-.07-50.72-2.86-16.75-2.79-33.15-7.41-48.9-13.75-15.75-6.35-30.77-14.4-44.77-24-14.01-9.6-26.93-20.7-38.53-33.11-11.6-12.4-21.82-26.04-30.46-40.65-8.65-14.62-15.67-30.13-20.96-46.28l8.76-49.98c2.73,16.99,7.38,33.61,13.87,49.54,6.49,15.93,14.77,31.08,24.69,45.13,9.92,14.06,21.41,26.94,34.25,38.39,12.84,11.46,26.94,21.41,42.03,29.67,15.09,8.26,31.08,14.77,47.64,19.42,16.57,4.64,33.61,7.38,50.79,8.16,17.19.78,34.41-.4,51.33-3.52,16.92-3.12,33.43-8.16,49.2-15.02-.52-.79-1.04-1.59-1.54-2.4-.5-.81-1-1.62-1.48-2.44-.48-.82-.95-1.65-1.41-2.48-.46-.83-.91-1.67-1.35-2.52-16.48,4.1-33.36,6.39-50.34,6.84-16.98.44-33.95-.97-50.63-4.2-16.67-3.24-32.94-8.28-48.52-15.05-15.58-6.76-30.37-15.21-44.12-25.18-13.75-9.97-26.37-21.41-37.64-34.12-11.27-12.71-21.12-26.6-29.37-41.45-8.26-14.84-14.87-30.54-19.72-46.81-4.85-16.27-7.92-33.03-9.14-49.97l20.59-46.38c-1.47,17.14-.97,34.39,1.47,51.43,2.44,17.03,6.82,33.72,13.04,49.76,6.22,16.04,14.26,31.32,23.94,45.54,9.68,14.22,20.96,27.29,33.6,38.96,12.64,11.67,26.58,21.85,41.53,30.36,14.95,8.51,30.83,15.29,47.31,20.2,16.49,4.92,33.48,7.94,50.65,9,17.17,1.07,34.41.17,51.38-2.67-.32-.9-.62-1.8-.92-2.7-.29-.9-.57-1.81-.84-2.72s-.53-1.83-.77-2.75c-.24-.92-.48-1.84-.7-2.76-16.98,0-33.92-1.87-50.5-5.54-16.58-3.68-32.71-9.15-48.11-16.33-15.39-7.17-29.96-16.01-43.44-26.34-13.48-10.33-25.79-22.1-36.72-35.1-10.93-13-20.41-27.15-28.27-42.21-7.86-15.06-14.05-30.92-18.47-47.32-4.42-16.4-7.04-33.23-7.81-50.19-.77-16.97.31-33.97,3.22-50.7l31.2-40.02c-5.57,16.28-9.26,33.14-11.01,50.25-1.75,17.12-1.54,34.37.62,51.44,2.16,17.07,6.26,33.83,12.21,49.97,5.96,16.14,13.73,31.55,23.18,45.93,9.45,14.38,20.5,27.63,32.95,39.51,12.45,11.88,26.21,22.29,41.02,31.05,14.81,8.76,30.57,15.8,46.97,20.99s33.34,8.49,50.5,9.84c-.09-.95-.17-1.89-.24-2.84-.06-.95-.12-1.9-.16-2.85-.04-.95-.07-1.9-.08-2.85-.01-.95-.02-1.9,0-2.85-16.48-4.12-32.46-10.02-47.65-17.59-15.2-7.58-29.52-16.79-42.72-27.48-13.2-10.68-25.2-22.78-35.78-36.06s-19.68-27.69-27.14-42.94c-7.46-15.26-13.23-31.28-17.21-47.79-3.98-16.51-6.16-33.4-6.48-50.39s1.21-33.95,4.56-50.59c3.36-16.65,8.52-32.88,15.39-48.41l39.96-31.28c-9.34,14.45-17.01,29.91-22.84,46.1-5.84,16.18-9.81,32.98-11.85,50.06-2.03,17.08-2.11,34.34-.24,51.45,1.88,17.1,5.69,33.93,11.38,50.17,5.69,16.24,13.21,31.77,22.41,46.31,9.21,14.53,20.04,27.97,32.29,40.05,12.25,12.08,25.84,22.73,40.5,31.73,14.66,9,30.3,16.31,46.62,21.77" fill="none" stroke="#000" stroke-linecap="round" stroke-linejoin="round" stroke-width=".14"/>
  <path d="M312.31,381.64h0c.14-.94.3-1.88.46-2.82.17-.94.34-1.87.54-2.8.19-.93.39-1.86.61-2.79.22-.93.44-1.85.68-2.77-14.99-7.98-29.07-17.57-41.98-28.6-12.91-11.03-24.59-23.44-34.81-37-10.22-13.56-18.94-28.2-25.99-43.65-7.05-15.45-12.4-31.62-15.94-48.23-3.55-16.61-5.27-33.56-5.14-50.54.13-16.98,2.11-33.9,5.9-50.46,3.8-16.55,9.38-32.64,16.67-47.99,7.28-15.34,16.22-29.84,26.64-43.25L286.29.07c-12.56,11.76-23.74,24.91-33.32,39.2-9.58,14.29-17.5,29.63-23.61,45.71-6.11,16.08-10.36,32.81-12.68,49.86-2.32,17.05-2.69,34.3-1.09,51.43s5.13,34.02,10.55,50.35c5.42,16.33,12.68,31.99,21.64,46.67,8.96,14.68,19.57,28.3,31.62,40.58,12.05,12.28,25.46,23.15,39.96,32.4,4.07-9.81,9.56-18.96,16.3-27.16,6.74-8.2,14.65-15.37,23.48-21.27,8.83-5.89,18.48-10.46,28.64-13.54,10.16-3.08,20.72-4.64,31.34-4.64s21.18,1.56,31.34,4.64c10.16,3.08,19.81,7.64,28.64,13.54,8.83,5.9,16.74,13.06,23.48,21.27,6.74,8.2,12.23,17.36,16.3,27.16,14.51-9.24,27.92-20.11,39.96-32.4,12.05-12.28,22.65-25.9,31.62-40.58,8.96-14.69,16.22-30.34,21.64-46.67,5.42-16.33,8.96-33.22,10.55-50.35,1.59-17.13,1.22-34.39-1.09-51.43-2.32-17.05-6.57-33.77-12.68-49.86-6.11-16.08-14.03-31.42-23.61-45.71-9.58-14.29-20.76-27.44-33.32-39.2l46.34,20.69c10.43,13.41,19.36,27.91,26.64,43.25,7.28,15.34,12.87,31.43,16.67,47.99,3.79,16.55,5.77,33.47,5.9,50.46.13,16.98-1.59,33.93-5.14,50.54-3.54,16.61-8.89,32.78-15.94,48.23-7.05,15.45-15.77,30.09-25.99,43.65-10.22,13.56-21.9,25.97-34.81,37-12.91,11.03-26.99,20.62-41.98,28.6.24.92.47,1.84.68,2.77.22.93.42,1.86.61,2.79.19.93.37,1.86.54,2.8s.32,1.87.46,2.82c16.32-5.46,31.95-12.76,46.62-21.77,14.66-9,28.25-19.65,40.5-31.73,12.25-12.08,23.08-25.52,32.29-40.05,9.21-14.53,16.73-30.07,22.42-46.31,5.69-16.24,9.5-33.07,11.38-50.17,1.87-17.1,1.8-34.36-.24-51.45-2.03-17.08-6.01-33.88-11.85-50.06-5.84-16.18-13.5-31.65-22.84-46.1l39.96,31.28c6.87,15.53,12.04,31.76,15.39,48.41,3.36,16.65,4.89,33.61,4.56,50.59-.32,16.98-2.49,33.88-6.48,50.39-3.98,16.51-9.76,32.53-17.22,47.79-7.46,15.26-16.56,29.66-27.14,42.94-10.58,13.29-22.58,25.38-35.78,36.06-13.2,10.69-27.53,19.9-42.72,27.48-15.2,7.58-31.18,13.48-47.65,17.59,0,.95,0,1.9,0,2.85-.01.95-.04,1.9-.08,2.85-.04.95-.09,1.9-.16,2.85-.06.95-.14,1.9-.24,2.84,17.15-1.35,34.09-4.65,50.5-9.84,16.4-5.19,32.16-12.23,46.97-20.99,14.81-8.76,28.57-19.18,41.02-31.05,12.45-11.88,23.51-25.13,32.95-39.51,9.45-14.38,17.22-29.79,23.18-45.93,5.96-16.14,10.06-32.91,12.21-49.97,2.16-17.07,2.37-34.33.62-51.44-1.75-17.11-5.45-33.97-11.01-50.25l31.2,40.02c2.91,16.73,3.99,33.73,3.22,50.7-.77,16.97-3.39,33.8-7.81,50.19-4.42,16.4-10.62,32.27-18.48,47.32s-17.34,29.21-28.27,42.21c-10.93,13-23.24,24.77-36.72,35.1-13.48,10.33-28.04,19.16-43.44,26.34-15.39,7.18-31.52,12.65-48.11,16.33-16.58,3.68-33.51,5.54-50.5,5.54-.22.92-.45,1.85-.7,2.76-.24.92-.5,1.83-.77,2.75-.27.91-.55,1.82-.84,2.72-.29.9-.6,1.8-.92,2.7,16.97,2.84,34.21,3.73,51.38,2.67,17.17-1.07,34.17-4.09,50.65-9,16.49-4.92,32.36-11.69,47.31-20.2,14.95-8.51,28.88-18.7,41.53-30.36,12.65-11.67,23.92-24.74,33.6-38.96,9.68-14.22,17.72-29.5,23.94-45.54,6.22-16.04,10.6-32.73,13.04-49.76,2.44-17.03,2.94-34.28,1.47-51.43l20.59,46.38c-1.22,16.94-4.29,33.7-9.14,49.97-4.85,16.28-11.47,31.97-19.72,46.81-8.26,14.84-18.11,28.74-29.37,41.45-11.27,12.71-23.89,24.15-37.64,34.12-13.75,9.97-28.54,18.41-44.12,25.18-15.58,6.76-31.85,11.81-48.52,15.05-16.67,3.24-33.65,4.65-50.63,4.2-16.98-.44-33.86-2.74-50.34-6.84-.44.84-.89,1.68-1.35,2.52-.46.83-.93,1.66-1.41,2.48-.48.82-.97,1.63-1.48,2.44-.5.81-1.02,1.61-1.54,2.4,15.78,6.86,32.29,11.9,49.2,15.02,16.92,3.12,34.14,4.3,51.33,3.52,17.19-.78,34.23-3.52,50.79-8.16,16.57-4.64,32.55-11.16,47.64-19.42,15.09-8.26,29.19-18.21,42.03-29.67,12.84-11.45,24.33-24.33,34.25-38.39,9.92-14.06,18.2-29.2,24.69-45.13,6.49-15.93,11.14-32.55,13.87-49.54l8.76,49.98c-5.28,16.14-12.31,31.66-20.96,46.28-8.65,14.62-18.86,28.25-30.46,40.65-11.6,12.41-24.52,23.51-38.53,33.11-14.01,9.6-29.02,17.65-44.77,24-15.75,6.35-32.15,10.96-48.9,13.75-16.75,2.79-33.76,3.75-50.72,2.86s-33.77-3.63-50.14-8.17c-16.37-4.54-32.19-10.85-47.19-18.81-.63.72-1.27,1.42-1.92,2.11-.65.7-1.3,1.38-1.97,2.06-.67.68-1.34,1.35-2.02,2.01-.68.66-1.38,1.31-2.08,1.96,13.65,10.47,28.45,19.35,44.11,26.47,15.66,7.12,32.08,12.43,48.95,15.83,16.86,3.4,34.06,4.87,51.26,4.37,17.2-.49,34.28-2.95,50.92-7.31,16.64-4.37,32.73-10.61,47.96-18.62,15.23-8.01,29.49-17.73,42.52-28.97,13.02-11.24,24.73-23.93,34.88-37.82,10.15-13.89,18.69-28.89,25.44-44.71l-3.59,50.62c-9.03,14.38-19.6,27.74-31.53,39.83-11.93,12.09-25.14,22.85-39.39,32.08-14.26,9.23-29.48,16.87-45.39,22.8-15.92,5.93-32.43,10.1-49.25,12.45-16.82,2.35-33.84,2.86-50.78,1.52-16.93-1.34-33.66-4.53-49.9-9.49-16.24-4.97-31.89-11.7-46.67-20.06-14.78-8.36-28.61-18.31-41.24-29.67-.78.54-1.57,1.07-2.37,1.59-.8.52-1.6,1.03-2.41,1.52-.81.5-1.63.98-2.45,1.46-.82.48-1.65.94-2.49,1.39,10.71,13.46,22.92,25.66,36.4,36.36,13.47,10.7,28.12,19.82,43.66,27.2,15.54,7.38,31.87,12.96,48.68,16.64,16.81,3.68,33.98,5.43,51.18,5.22,17.2-.21,34.33-2.38,51.04-6.46s32.9-10.07,48.26-17.82c15.36-7.75,29.78-17.23,42.99-28.26,13.21-11.02,25.12-23.51,35.5-37.23l-15.73,48.24c-12.24,11.77-25.73,22.17-40.23,31.02-14.5,8.85-29.91,16.09-45.98,21.59-16.07,5.51-32.69,9.24-49.56,11.15-16.88,1.9-33.91,1.96-50.8.17-16.89-1.79-33.53-5.42-49.63-10.81-16.1-5.4-31.57-12.53-46.13-21.28-14.56-8.75-28.11-19.06-40.44-30.75-12.32-11.69-23.33-24.69-32.83-38.76-6.06,2.28-12.31,4-18.68,5.16-6.37,1.16-12.83,1.74-19.3,1.74s-12.93-.58-19.3-1.74c-6.37-1.15-12.62-2.88-18.68-5.16-9.5,14.08-20.51,27.07-32.83,38.76-12.32,11.69-25.88,22-40.44,30.75-14.56,8.75-30.02,15.89-46.13,21.28-16.1,5.4-32.75,9.02-49.63,10.81-16.89,1.79-33.92,1.73-50.8-.17-16.88-1.9-33.5-5.64-49.56-11.15-16.07-5.5-31.48-12.74-45.98-21.59-14.5-8.85-27.99-19.25-40.23-31.02l-15.73-48.24c10.38,13.72,22.29,26.21,35.5,37.23,13.21,11.02,27.63,20.5,42.99,28.26,15.36,7.75,31.55,13.73,48.26,17.82,16.71,4.09,33.83,6.25,51.04,6.46,17.2.21,34.37-1.54,51.18-5.22,16.8-3.68,33.14-9.27,48.68-16.64,15.54-7.38,30.19-16.51,43.66-27.2,13.48-10.7,25.68-22.9,36.4-36.36-.84-.45-1.66-.92-2.49-1.39-.82-.48-1.64-.96-2.45-1.46-.81-.5-1.61-1.01-2.41-1.52-.8-.52-1.59-1.05-2.37-1.59-12.63,11.36-26.45,21.31-41.24,29.67-14.78,8.36-30.43,15.09-46.67,20.06-16.24,4.97-32.97,8.15-49.9,9.49-16.93,1.34-33.96.83-50.78-1.52-16.82-2.35-33.33-6.53-49.25-12.45-15.91-5.93-31.14-13.58-45.39-22.8-14.26-9.23-27.47-19.98-39.39-32.08-11.93-12.09-22.5-25.45-31.53-39.83L.07,386.5c6.75,15.82,15.29,30.83,25.44,44.71,10.15,13.89,21.85,26.58,34.88,37.82,13.03,11.24,27.29,20.96,42.52,28.97,15.23,8.01,31.32,14.26,47.96,18.62,16.64,4.36,33.73,6.82,50.92,7.31,17.2.5,34.4-.97,51.26-4.37,16.86-3.4,33.29-8.71,48.95-15.83,15.66-7.12,30.46-16,44.11-26.47-.7-.64-1.39-1.3-2.08-1.96-.68-.66-1.36-1.33-2.03-2.01-.66-.68-1.32-1.37-1.97-2.06-.65-.7-1.29-1.4-1.92-2.11-15,7.97-30.82,14.28-47.19,18.81-16.37,4.54-33.18,7.27-50.14,8.17-16.96.89-33.97-.07-50.72-2.86-16.75-2.79-33.15-7.41-48.9-13.75-15.75-6.35-30.77-14.4-44.77-24-14.01-9.6-26.93-20.7-38.53-33.11-11.6-12.4-21.82-26.04-30.46-40.65-8.65-14.62-15.67-30.13-20.96-46.28l8.76-49.98c2.73,16.99,7.38,33.61,13.87,49.54,6.49,15.93,14.77,31.08,24.69,45.13,9.92,14.06,21.41,26.94,34.25,38.39,12.84,11.46,26.94,21.41,42.03,29.67,15.09,8.26,31.08,14.77,47.64,19.42,16.57,4.64,33.61,7.38,50.79,8.16,17.19.78,34.41-.4,51.33-3.52,16.92-3.12,33.43-8.16,49.2-15.02-.52-.79-1.04-1.59-1.54-2.4-.5-.81-1-1.62-1.48-2.44-.48-.82-.95-1.65-1.41-2.48-.46-.83-.91-1.67-1.35-2.52-16.48,4.1-33.36,6.39-50.34,6.84-16.98.44-33.95-.97-50.63-4.2-16.67-3.24-32.94-8.28-48.52-15.05-15.58-6.76-30.37-15.21-44.12-25.18-13.75-9.97-26.37-21.41-37.64-34.12-11.27-12.71-21.12-26.6-29.37-41.45-8.26-14.84-14.87-30.54-19.72-46.81-4.85-16.27-7.92-33.03-9.14-49.97l20.59-46.38c-1.47,17.14-.97,34.39,1.47,51.43,2.44,17.03,6.82,33.72,13.04,49.76,6.22,16.04,14.26,31.32,23.94,45.54,9.68,14.22,20.96,27.29,33.6,38.96,12.64,11.67,26.58,21.85,41.53,30.36,14.95,8.51,30.83,15.29,47.31,20.2,16.49,4.92,33.48,7.94,50.65,9,17.17,1.07,34.41.17,51.38-2.67-.32-.9-.62-1.8-.92-2.7-.29-.9-.57-1.81-.84-2.72s-.53-1.83-.77-2.75c-.24-.92-.48-1.84-.7-2.76-16.98,0-33.92-1.87-50.5-5.54-16.58-3.68-32.71-9.15-48.11-16.33-15.39-7.17-29.96-16.01-43.44-26.34-13.48-10.33-25.79-22.1-36.72-35.1-10.93-13-20.41-27.15-28.27-42.21-7.86-15.06-14.05-30.92-18.47-47.32-4.42-16.4-7.04-33.23-7.81-50.19-.77-16.97.31-33.97,3.22-50.7l31.2-40.02c-5.57,16.28-9.26,33.14-11.01,50.25-1.75,17.12-1.54,34.37.62,51.44,2.16,17.07,6.26,33.83,12.21,49.97,5.96,16.14,13.73,31.55,23.18,45.93,9.45,14.38,20.5,27.63,32.95,39.51,12.45,11.88,26.21,22.29,41.02,31.05,14.81,8.76,30.57,15.8,46.97,20.99s33.34,8.49,50.5,9.84c-.09-.95-.17-1.89-.24-2.84-.06-.95-.12-1.9-.16-2.85-.04-.95-.07-1.9-.08-2.85-.01-.95-.02-1.9,0-2.85-16.48-4.12-32.46-10.02-47.65-17.59-15.2-7.58-29.52-16.79-42.72-27.48-13.2-10.68-25.2-22.78-35.78-36.06s-19.68-27.69-27.14-42.94c-7.46-15.26-13.23-31.28-17.21-47.79-3.98-16.51-6.16-33.4-6.48-50.39s1.21-33.95,4.56-50.59c3.36-16.65,8.52-32.88,15.39-48.41l39.96-31.28c-9.34,14.45-17.01,29.91-22.84,46.1-5.84,16.18-9.81,32.98-11.85,50.06-2.03,17.08-2.11,34.34-.24,51.45,1.88,17.1,5.69,33.93,11.38,50.17,5.69,16.24,13.21,31.77,22.41,46.31,9.21,14.53,20.04,27.97,32.29,40.05,12.25,12.08,25.84,22.73,40.5,31.73,14.66,9,30.3,16.31,46.62,21.77" fill="#fff" fill-rule="evenodd"/>
  <path d="M312.31,381.64h0c.14-.94.3-1.88.46-2.82.17-.94.34-1.87.54-2.8.19-.93.39-1.86.61-2.79.22-.93.44-1.85.68-2.77-14.99-7.98-29.07-17.57-41.98-28.6-12.91-11.03-24.59-23.44-34.81-37-10.22-13.56-18.94-28.2-25.99-43.65-7.05-15.45-12.4-31.62-15.94-48.23-3.55-16.61-5.27-33.56-5.14-50.54.13-16.98,2.11-33.9,5.9-50.46,3.8-16.55,9.38-32.64,16.67-47.99,7.28-15.34,16.22-29.84,26.64-43.25L286.29.07c-12.56,11.76-23.74,24.91-33.32,39.2-9.58,14.29-17.5,29.63-23.61,45.71-6.11,16.08-10.36,32.81-12.68,49.86-2.32,17.05-2.69,34.3-1.09,51.43s5.13,34.02,10.55,50.35c5.42,16.33,12.68,31.99,21.64,46.67,8.96,14.68,19.57,28.3,31.62,40.58,12.05,12.28,25.46,23.15,39.96,32.4,4.07-9.81,9.56-18.96,16.3-27.16,6.74-8.2,14.65-15.37,23.48-21.27,8.83-5.89,18.48-10.46,28.64-13.54,10.16-3.08,20.72-4.64,31.34-4.64s21.18,1.56,31.34,4.64c10.16,3.08,19.81,7.64,28.64,13.54,8.83,5.9,16.74,13.06,23.48,21.27,6.74,8.2,12.23,17.36,16.3,27.16,14.51-9.24,27.92-20.11,39.96-32.4,12.05-12.28,22.65-25.9,31.62-40.58,8.96-14.69,16.22-30.34,21.64-46.67,5.42-16.33,8.96-33.22,10.55-50.35,1.59-17.13,1.22-34.39-1.09-51.43-2.32-17.05-6.57-33.77-12.68-49.86-6.11-16.08-14.03-31.42-23.61-45.71-9.58-14.29-20.76-27.44-33.32-39.2l46.34,20.69c10.43,13.41,19.36,27.91,26.64,43.25,7.28,15.34,12.87,31.43,16.67,47.99,3.79,16.55,5.77,33.47,5.9,50.46.13,16.98-1.59,33.93-5.14,50.54-3.54,16.61-8.89,32.78-15.94,48.23-7.05,15.45-15.77,30.09-25.99,43.65-10.22,13.56-21.9,25.97-34.81,37-12.91,11.03-26.99,20.62-41.98,28.6.24.92.47,1.84.68,2.77.22.93.42,1.86.61,2.79.19.93.37,1.86.54,2.8s.32,1.87.46,2.82c16.32-5.46,31.95-12.76,46.62-21.77,14.66-9,28.25-19.65,40.5-31.73,12.25-12.08,23.08-25.52,32.29-40.05,9.21-14.53,16.73-30.07,22.42-46.31,5.69-16.24,9.5-33.07,11.38-50.17,1.87-17.1,1.8-34.36-.24-51.45-2.03-17.08-6.01-33.88-11.85-50.06-5.84-16.18-13.5-31.65-22.84-46.1l39.96,31.28c6.87,15.53,12.04,31.76,15.39,48.41,3.36,16.65,4.89,33.61,4.56,50.59-.32,16.98-2.49,33.88-6.48,50.39-3.98,16.51-9.76,32.53-17.22,47.79-7.46,15.26-16.56,29.66-27.14,42.94-10.58,13.29-22.58,25.38-35.78,36.06-13.2,10.69-27.53,19.9-42.72,27.48-15.2,7.58-31.18,13.48-47.65,17.59,0,.95,0,1.9,0,2.85-.01.95-.04,1.9-.08,2.85-.04.95-.09,1.9-.16,2.85-.06.95-.14,1.9-.24,2.84,17.15-1.35,34.09-4.65,50.5-9.84,16.4-5.19,32.16-12.23,46.97-20.99,14.81-8.76,28.57-19.18,41.02-31.05,12.45-11.88,23.51-25.13,32.95-39.51,9.45-14.38,17.22-29.79,23.18-45.93,5.96-16.14,10.06-32.91,12.21-49.97,2.16-17.07,2.37-34.33.62-51.44-1.75-17.11-5.45-33.97-11.01-50.25l31.2,40.02c2.91,16.73,3.99,33.73,3.22,50.7-.77,16.97-3.39,33.8-7.81,50.19-4.42,16.4-10.62,32.27-18.48,47.32s-17.34,29.21-28.27,42.21c-10.93,13-23.24,24.77-36.72,35.1-13.48,10.33-28.04,19.16-43.44,26.34-15.39,7.18-31.52,12.65-48.11,16.33-16.58,3.68-33.51,5.54-50.5,5.54-.22.92-.45,1.85-.7,2.76-.24.92-.5,1.83-.77,2.75-.27.91-.55,1.82-.84,2.72-.29.9-.6,1.8-.92,2.7,16.97,2.84,34.21,3.73,51.38,2.67,17.17-1.07,34.17-4.09,50.65-9,16.49-4.92,32.36-11.69,47.31-20.2,14.95-8.51,28.88-18.7,41.53-30.36,12.65-11.67,23.92-24.74,33.6-38.96,9.68-14.22,17.72-29.5,23.94-45.54,6.22-16.04,10.6-32.73,13.04-49.76,2.44-17.03,2.94-34.28,1.47-51.43l20.59,46.38c-1.22,16.94-4.29,33.7-9.14,49.97-4.85,16.28-11.47,31.97-19.72,46.81-8.26,14.84-18.11,28.74-29.37,41.45-11.27,12.71-23.89,24.15-37.64,34.12-13.75,9.97-28.54,18.41-44.12,25.18-15.58,6.76-31.85,11.81-48.52,15.05-16.67,3.24-33.65,4.65-50.63,4.2-16.98-.44-33.86-2.74-50.34-6.84-.44.84-.89,1.68-1.35,2.52-.46.83-.93,1.66-1.41,2.48-.48.82-.97,1.63-1.48,2.44-.5.81-1.02,1.61-1.54,2.4,15.78,6.86,32.29,11.9,49.2,15.02,16.92,3.12,34.14,4.3,51.33,3.52,17.19-.78,34.23-3.52,50.79-8.16,16.57-4.64,32.55-11.16,47.64-19.42,15.09-8.26,29.19-18.21,42.03-29.67,12.84-11.45,24.33-24.33,34.25-38.39,9.92-14.06,18.2-29.2,24.69-45.13,6.49-15.93,11.14-32.55,13.87-49.54l8.76,49.98c-5.28,16.14-12.31,31.66-20.96,46.28-8.65,14.62-18.86,28.25-30.46,40.65-11.6,12.41-24.52,23.51-38.53,33.11-14.01,9.6-29.02,17.65-44.77,24-15.75,6.35-32.15,10.96-48.9,13.75-16.75,2.79-33.76,3.75-50.72,2.86s-33.77-3.63-50.14-8.17c-16.37-4.54-32.19-10.85-47.19-18.81-.63.72-1.27,1.42-1.92,2.11-.65.7-1.3,1.38-1.97,2.06-.67.68-1.34,1.35-2.02,2.01-.68.66-1.38,1.31-2.08,1.96,13.65,10.47,28.45,19.35,44.11,26.47,15.66,7.12,32.08,12.43,48.95,15.83,16.86,3.4,34.06,4.87,51.26,4.37,17.2-.49,34.28-2.95,50.92-7.31,16.64-4.37,32.73-10.61,47.96-18.62,15.23-8.01,29.49-17.73,42.52-28.97,13.02-11.24,24.73-23.93,34.88-37.82,10.15-13.89,18.69-28.89,25.44-44.71l-3.59,50.62c-9.03,14.38-19.6,27.74-31.53,39.83-11.93,12.09-25.14,22.85-39.39,32.08-14.26,9.23-29.48,16.87-45.39,22.8-15.92,5.93-32.43,10.1-49.25,12.45-16.82,2.35-33.84,2.86-50.78,1.52-16.93-1.34-33.66-4.53-49.9-9.49-16.24-4.97-31.89-11.7-46.67-20.06-14.78-8.36-28.61-18.31-41.24-29.67-.78.54-1.57,1.07-2.37,1.59-.8.52-1.6,1.03-2.41,1.52-.81.5-1.63.98-2.45,1.46-.82.48-1.65.94-2.49,1.39,10.71,13.46,22.92,25.66,36.4,36.36,13.47,10.7,28.12,19.82,43.66,27.2,15.54,7.38,31.87,12.96,48.68,16.64,16.81,3.68,33.98,5.43,51.18,5.22,17.2-.21,34.33-2.38,51.04-6.46s32.9-10.07,48.26-17.82c15.36-7.75,29.78-17.23,42.99-28.26,13.21-11.02,25.12-23.51,35.5-37.23l-15.73,48.24c-12.24,11.77-25.73,22.17-40.23,31.02-14.5,8.85-29.91,16.09-45.98,21.59-16.07,5.51-32.69,9.24-49.56,11.15-16.88,1.9-33.91,1.96-50.8.17-16.89-1.79-33.53-5.42-49.63-10.81-16.1-5.4-31.57-12.53-46.13-21.28-14.56-8.75-28.11-19.06-40.44-30.75-12.32-11.69-23.33-24.69-32.83-38.76-6.06,2.28-12.31,4-18.68,5.16-6.37,1.16-12.83,1.74-19.3,1.74s-12.93-.58-19.3-1.74c-6.37-1.15-12.62-2.88-18.68-5.16-9.5,14.08-20.51,27.07-32.83,38.76-12.32,11.69-25.88,22-40.44,30.75-14.56,8.75-30.02,15.89-46.13,21.28-16.1,5.4-32.75,9.02-49.63,10.81-16.89,1.79-33.92,1.73-50.8-.17-16.88-1.9-33.5-5.64-49.56-11.15-16.07-5.5-31.48-12.74-45.98-21.59-14.5-8.85-27.99-19.25-40.23-31.02l-15.73-48.24c10.38,13.72,22.29,26.21,35.5,37.23,13.21,11.02,27.63,20.5,42.99,28.26,15.36,7.75,31.55,13.73,48.26,17.82,16.71,4.09,33.83,6.25,51.04,6.46,17.2.21,34.37-1.54,51.18-5.22,16.8-3.68,33.14-9.27,48.68-16.64,15.54-7.38,30.19-16.51,43.66-27.2,13.48-10.7,25.68-22.9,36.4-36.36-.84-.45-1.66-.92-2.49-1.39-.82-.48-1.64-.96-2.45-1.46-.81-.5-1.61-1.01-2.41-1.52-.8-.52-1.59-1.05-2.37-1.59-12.63,11.36-26.45,21.31-41.24,29.67-14.78,8.36-30.43,15.09-46.67,20.06-16.24,4.97-32.97,8.15-49.9,9.49-16.93,1.34-33.96.83-50.78-1.52-16.82-2.35-33.33-6.53-49.25-12.45-15.91-5.93-31.14-13.58-45.39-22.8-14.26-9.23-27.47-19.98-39.39-32.08-11.93-12.09-22.5-25.45-31.53-39.83L.07,386.5c6.75,15.82,15.29,30.83,25.44,44.71,10.15,13.89,21.85,26.58,34.88,37.82,13.03,11.24,27.29,20.96,42.52,28.97,15.23,8.01,31.32,14.26,47.96,18.62,16.64,4.36,33.73,6.82,50.92,7.31,17.2.5,34.4-.97,51.26-4.37,16.86-3.4,33.29-8.71,48.95-15.83,15.66-7.12,30.46-16,44.11-26.47-.7-.64-1.39-1.3-2.08-1.96-.68-.66-1.36-1.33-2.03-2.01-.66-.68-1.32-1.37-1.97-2.06-.65-.7-1.29-1.4-1.92-2.11-15,7.97-30.82,14.28-47.19,18.81-16.37,4.54-33.18,7.27-50.14,8.17-16.96.89-33.97-.07-50.72-2.86-16.75-2.79-33.15-7.41-48.9-13.75-15.75-6.35-30.77-14.4-44.77-24-14.01-9.6-26.93-20.7-38.53-33.11-11.6-12.4-21.82-26.04-30.46-40.65-8.65-14.62-15.67-30.13-20.96-46.28l8.76-49.98c2.73,16.99,7.38,33.61,13.87,49.54,6.49,15.93,14.77,31.08,24.69,45.13,9.92,14.06,21.41,26.94,34.25,38.39,12.84,11.46,26.94,21.41,42.03,29.67,15.09,8.26,31.08,14.77,47.64,19.42,16.57,4.64,33.61,7.38,50.79,8.16,17.19.78,34.41-.4,51.33-3.52,16.92-3.12,33.43-8.16,49.2-15.02-.52-.79-1.04-1.59-1.54-2.4-.5-.81-1-1.62-1.48-2.44-.48-.82-.95-1.65-1.41-2.48-.46-.83-.91-1.67-1.35-2.52-16.48,4.1-33.36,6.39-50.34,6.84-16.98.44-33.95-.97-50.63-4.2-16.67-3.24-32.94-8.28-48.52-15.05-15.58-6.76-30.37-15.21-44.12-25.18-13.75-9.97-26.37-21.41-37.64-34.12-11.27-12.71-21.12-26.6-29.37-41.45-8.26-14.84-14.87-30.54-19.72-46.81-4.85-16.27-7.92-33.03-9.14-49.97l20.59-46.38c-1.47,17.14-.97,34.39,1.47,51.43,2.44,17.03,6.82,33.72,13.04,49.76,6.22,16.04,14.26,31.32,23.94,45.54,9.68,14.22,20.96,27.29,33.6,38.96,12.64,11.67,26.58,21.85,41.53,30.36,14.95,8.51,30.83,15.29,47.31,20.2,16.49,4.92,33.48,7.94,50.65,9,17.17,1.07,34.41.17,51.38-2.67-.32-.9-.62-1.8-.92-2.7-.29-.9-.57-1.81-.84-2.72s-.53-1.83-.77-2.75c-.24-.92-.48-1.84-.7-2.76-16.98,0-33.92-1.87-50.5-5.54-16.58-3.68-32.71-9.15-48.11-16.33-15.39-7.17-29.96-16.01-43.44-26.34-13.48-10.33-25.79-22.1-36.72-35.1-10.93-13-20.41-27.15-28.27-42.21-7.86-15.06-14.05-30.92-18.47-47.32-4.42-16.4-7.04-33.23-7.81-50.19-.77-16.97.31-33.97,3.22-50.7l31.2-40.02c-5.57,16.28-9.26,33.14-11.01,50.25-1.75,17.12-1.54,34.37.62,51.44,2.16,17.07,6.26,33.83,12.21,49.97,5.96,16.14,13.73,31.55,23.18,45.93,9.45,14.38,20.5,27.63,32.95,39.51,12.45,11.88,26.21,22.29,41.02,31.05,14.81,8.76,30.57,15.8,46.97,20.99s33.34,8.49,50.5,9.84c-.09-.95-.17-1.89-.24-2.84-.06-.95-.12-1.9-.16-2.85-.04-.95-.07-1.9-.08-2.85-.01-.95-.02-1.9,0-2.85-16.48-4.12-32.46-10.02-47.65-17.59-15.2-7.58-29.52-16.79-42.72-27.48-13.2-10.68-25.2-22.78-35.78-36.06s-19.68-27.69-27.14-42.94c-7.46-15.26-13.23-31.28-17.21-47.79-3.98-16.51-6.16-33.4-6.48-50.39s1.21-33.95,4.56-50.59c3.36-16.65,8.52-32.88,15.39-48.41l39.96-31.28c-9.34,14.45-17.01,29.91-22.84,46.1-5.84,16.18-9.81,32.98-11.85,50.06-2.03,17.08-2.11,34.34-.24,51.45,1.88,17.1,5.69,33.93,11.38,50.17,5.69,16.24,13.21,31.77,22.41,46.31,9.21,14.53,20.04,27.97,32.29,40.05,12.25,12.08,25.84,22.73,40.5,31.73,14.66,9,30.3,16.31,46.62,21.77" fill="none" stroke="#000" stroke-linecap="round" stroke-linejoin="round" stroke-width=".14"/>
</svg>